inDegrees=yes
name=ik_Xsens_quaternion
DataType=double
version=3
OpenSimVersion=4.4-2022-07-23-0e9fedc
endheader
time	pelvis_tilt	pelvis_list	pelvis_rotation	pelvis_tx	pelvis_ty	pelvis_tz	hip_flexion_r	hip_adduction_r	hip_rotation_r	knee_angle_r	knee_angle_r_beta	ankle_angle_r	subtalar_angle_r	mtp_angle_r	hip_flexion_l	hip_adduction_l	hip_rotation_l	knee_angle_l	knee_angle_l_beta	ankle_angle_l	subtalar_angle_l	mtp_angle_l	lumbar_extension	lumbar_bending	lumbar_rotation	arm_flex_r	arm_add_r	arm_rot_r	elbow_flex_r	pro_sup_r	wrist_flex_r	wrist_dev_r	arm_flex_l	arm_add_l	arm_rot_l	elbow_flex_l	pro_sup_l	wrist_flex_l	wrist_dev_l
0	0	0	0	0	0.93	0	0	0	0	0	0	0	0	0	0	0	0	0	0	0	0	0	0	0	0	0	0	0	0	0	0	0	0	0	0	0	0	0	0
0.01666666666666667	0.006342293827925546	-0.003152932393538007	0.009723942426854733	0	0.93	0	44.17735871383844	-9.951557416329075	2.114063504316115e-11	60.3236359240496	1.052846063648998	-4.985811588020421	0	0	44.17735871382994	-9.951557416329923	1.282090814420435e-15	60.32363592404963	1.052846063648998	-4.985811587930587	0	0	0	0	0	0	0	0	0	0	0	0	0	0	0	3.49431415662443e-40	0	0	0
0.03333333333333333	0.02188100051157062	-0.01795708503663044	0.01040361900162317	0	0.93	0	44.17738649896609	-9.951562859580772	2.113810722132438e-11	60.32362705681135	1.052845908886495	-4.985813644885014	0	0	44.17738649895759	-9.951562859581619	1.282090814420435e-15	60.32362705681138	1.052845908886495	-4.985813644795194	0	0	0	0	0	0	0	0	0	0	0	0	0	0	0	0	0	0	0
0.05	0.05284679338677043	-0.02469801656459598	0.01549097906934562	0	0.93	0	44.17741440958229	-9.951568325203347	2.113556833878956e-11	60.32361814826205	1.052845753402978	-4.985815709931404	0	0	44.17741440957379	-9.951568325204192	1.282090814420435e-15	60.32361814826207	1.052845753402978	-4.985815709841597	0	0	0	0	0	0	0	0	0	0	0	0	0	0	0	0	0	0	0
0.06666666666666667	0.08285457549750755	-0.0281902155995966	0.02191771225774573	0	0.93	0	44.17744232122877	-9.951573790612345	2.113303074966918e-11	60.32360923934894	1.052845597913111	-4.985817774830548	0	0	44.17744232122028	-9.951573790613191	1.282090814420435e-15	60.32360923934896	1.052845597913111	-4.985817774740755	0	0	0	0	0	0	0	0	0	0	0	0	0	0	0	0	0	0	0
0.08333333333333333	0.08238496724413832	-0.03426388665011759	0.02023303812594172	0	0.93	0	44.17747000353047	-9.951579213955204	2.113051241107322e-11	60.32360040581646	1.052845443738885	-4.985819824142673	0	0	44.17747000352197	-9.95157921395605	1.282090814420435e-15	60.32360040581649	1.052845443738885	-4.985819824052888	0	0	0	0	0	0	0	0	0	0	0	0	0	0	0	0	0	0	0
0.1	0.05413443627141859	-0.04029436449476678	-6.084734692840361e-05	0	0.93	0	44.17749744683294	-9.951584592962163	2.112801512566757e-11	60.32359165038245	1.052845290927734	-4.985821856974658	0	0	44.17749744682444	-9.951584592963011	1.282090814420435e-15	60.32359165038248	1.052845290927734	-4.985821856884887	0	0	0	0	0	0	0	0	0	0	0	0	0	0	0	0	0	0	0
0.1166666666666667	0.01674896259046467	-0.06592921670086015	-0.02653556724754972	0	0.93	0	44.17752479667981	-9.95158995422927	2.112552719329111e-11	60.32358292531571	1.052845138646592	-4.985823883155795	0	0	44.17752479667131	-9.951589954230117	1.282090814420435e-15	60.32358292531574	1.052845138646592	-4.985823883066037	0	0	0	0	0	0	0	0	0	0	0	0	0	0	0	0	0	0	0
0.1333333333333333	-0.02884507405195294	-0.1209224578642108	-0.05121846876716927	0	0.93	0	44.17755205915616	-9.951595298642189	2.112304802708695e-11	60.32357422839225	1.052844986856643	-4.98582590299095	0	0	44.17755205914766	-9.951595298643037	1.282090814420435e-15	60.32357422839227	1.052844986856643	-4.985825902901206	0	0	0	0	0	0	0	0	0	0	0	0	0	0	0	0	0	0	0
0.15	-0.1018755472017755	-0.1853831317395171	-0.07946154042222271	0	0.93	0	44.17757912086447	-9.95160060534465	2.112058761030003e-11	60.32356559669491	1.052844836205104	-4.985827908756999	0	0	44.17757912085597	-9.951600605345496	1.282090814420435e-15	60.32356559669493	1.052844836205104	-4.985827908667263	0	0	0	0	0	0	0	0	0	0	0	0	0	0	0	0	0	0	0
0.1666666666666667	-0.1905696841673095	-0.2434135166073325	-0.1137564295658609	0	0.93	0	44.17760608586276	-9.951605893834017	2.111813615868478e-11	60.32355699654884	1.052844686104239	-4.98582990770997	0	0	44.17760608585426	-9.951605893834865	1.282090814420435e-15	60.32355699654887	1.052844686104239	-4.985829907620249	0	0	0	0	0	0	0	0	0	0	0	0	0	0	0	0	0	0	0
0.1833333333333333	-0.274705169644384	-0.3003036022043202	-0.1437096924506295	0	0.93	0	44.1776331098474	-9.951611193131701	2.11156791001814e-11	60.32354837739434	1.052844535671614	-4.985831910636933	0	0	44.1776331098389	-9.951611193132546	1.282090814420435e-15	60.32354837739436	1.052844535671615	-4.98583191054722	0	0	0	0	0	0	0	0	0	0	0	0	0	0	0	0	0	0	0
0.2	-0.3363775700203581	-0.3587781444576741	-0.1684464667522848	0	0.93	0	44.1776603128094	-9.951616525517643	2.111320592796502e-11	60.32353970020069	1.052844384226015	-4.985833925809426	0	0	44.1776603128009	-9.951616525518489	1.282090814420435e-15	60.32353970020072	1.052844384226016	-4.985833925719727	0	0	0	0	0	0	0	0	0	0	0	0	0	0	0	0	0	0	0
0.2166666666666667	-0.3659119353259797	-0.411870229404888	-0.1834357446428734	0	0.93	0	44.17768778246482	-9.951621907098799	2.111070880961689e-11	60.32353093630275	1.052844231267141	-4.985835959186467	0	0	44.17768778245632	-9.951621907099645	1.282090814420435e-15	60.32353093630277	1.052844231267141	-4.985835959096774	0	0	0	0	0	0	0	0	0	0	0	0	0	0	0	0	0	0	0
0.2333333333333333	-0.381867897081522	-0.4693841304968311	-0.1938282519358435	0	0.93	0	44.17771535865144	-9.951627307884062	2.110820201228028e-11	60.32352213755912	1.052844077700094	-4.985837999608	0	0	44.17771535864294	-9.951627307884912	1.282090814420435e-15	60.32352213755914	1.052844077700095	-4.985837999518321	0	0	0	0	0	0	0	0	0	0	0	0	0	0	0	0	0	0	0
0.25	-0.3978606370238161	-0.5224201921461032	-0.203176493619714	0	0.93	0	44.17774296022319	-9.95163271321322	2.110594189977111e-11	60.32351333074025	1.052843923992109	-4.985840041673459	0	0	44.1777429602147	-9.951632713214069	1.282090814420435e-15	60.32351333074028	1.052843923992109	-4.985840041583793	0	0	0	0	0	0	0	0	0	0	0	0	0	0	0	0	0	0	0
0.2666666666666667	-0.4177918960804172	-0.5639734585586639	-0.2119822001429738	0	0.93	0	44.17777057085316	-9.951638120209674	2.110368066978285e-11	60.32350452130383	1.052843770238438	-4.985842084330661	0	0	44.17777057084467	-9.951638120210523	1.282090814420435e-15	60.32350452130385	1.052843770238438	-4.98584208424101	0	0	0	0	0	0	0	0	0	0	0	0	0	0	0	0	0	0	0
0.2833333333333333	-0.4459588382811637	-0.5986467032882499	-0.2196081350968186	0	0.93	0	44.17779815002789	-9.951643521266508	2.110141916880416e-11	60.3234957223372	1.052843616667499	-4.985844124747566	0	0	44.1777981500194	-9.951643521267359	1.282090814420435e-15	60.32349572233723	1.0528436166675	-4.985844124657927	0	0	0	0	0	0	0	0	0	0	0	0	0	0	0	0	0	0	0
0.3	-0.4815538554397748	-0.6311273130364298	-0.2267188379242162	0	0.93	0	44.17782569179166	-9.951648915159092	2.109916073867231e-11	60.32348693566333	1.05284346331111	-4.985846162457528	0	0	44.17782569178317	-9.951648915159939	1.282090814420435e-15	60.32348693566335	1.05284346331111	-4.985846162367902	0	0	0	0	0	0	0	0	0	0	0	0	0	0	0	0	0	0	0
0.3166666666666667	-0.5176127671626317	-0.6644235887172633	-0.2319380525349072	0	0.93	0	44.17785324228763	-9.951654310334407	2.109690154501792e-11	60.32347814616865	1.052843309905488	-4.985848200583567	0	0	44.17785324227914	-9.951654310335254	1.282090814420435e-15	60.32347814616868	1.052843309905489	-4.985848200493947	0	0	0	0	0	0	0	0	0	0	0	0	0	0	0	0	0	0	0
0.3333333333333333	-0.5571467068944584	-0.6971474046759429	-0.2362706482709647	0	0.93	0	44.17788077912924	-9.951659702681528	2.109464590171846e-11	60.32346936117253	1.052843156578381	-4.985850237604518	0	0	44.17788077912075	-9.951659702682376	1.282090814420435e-15	60.32346936117256	1.052843156578382	-4.985850237514913	0	0	0	0	0	0	0	0	0	0	0	0	0	0	0	0	0	0	0
0.35	-0.599790290149643	-0.729827433411489	-0.2381991029863158	0	0.93	0	44.17790830681357	-9.951665093022854	2.109239120709367e-11	60.3234605792	1.052843003304045	-4.985852273824452	0	0	44.17790830680508	-9.951665093023701	1.282090814420435e-15	60.32346057920002	1.052843003304046	-4.98585227373486	0	0	0	0	0	0	0	0	0	0	0	0	0	0	0	0	0	0	0
0.3666666666666666	-0.6443834881831801	-0.7580769829044227	-0.2392406556722909	0	0.93	0	44.17793583452295	-9.951670483082966	2.109013636449558e-11	60.32345179728733	1.052842850030755	-4.985854309885318	0	0	44.17793583451446	-9.951670483083813	1.282090814420435e-15	60.32345179728736	1.052842850030755	-4.985854309795743	0	0	0	0	0	0	0	0	0	0	0	0	0	0	0	0	0	0	0
0.3833333333333333	-0.6891974027838702	-0.7712379056361884	-0.2344307317158515	0	0.93	0	44.17796339304306	-9.95167587855871	2.108787852915671e-11	60.32344300541304	1.052842696583601	-4.985856347899417	0	0	44.17796339303457	-9.951675878559559	1.282090814420435e-15	60.32344300541306	1.052842696583602	-4.985856347809855	0	0	0	0	0	0	0	0	0	0	0	0	0	0	0	0	0	0	0
0.4	-0.721013150716838	-0.7732421874165908	-0.2273996750810653	0	0.93	0	44.17799105661685	-9.951681292973793	2.108561292253804e-11	60.32343417921286	1.052842542537348	-4.985858392858648	0	0	44.17799105660836	-9.951681292974643	1.282090814420435e-15	60.32343417921289	1.052842542537348	-4.985858392769099	0	0	0	0	0	0	0	0	0	0	0	0	0	0	0	0	0	0	0
0.4166666666666667	-0.7346867175786981	-0.7741787436814775	-0.2266824975015665	0	0.93	0	44.17801883134872	-9.951686727284436	2.10833389918946e-11	60.32342531655254	1.052842387854744	-4.985860445098708	0	0	44.17801883134023	-9.951686727285283	1.282090814420435e-15	60.32342531655256	1.052842387854745	-4.985860445009175	0	0	0	0	0	0	0	0	0	0	0	0	0	0	0	0	0	0	0
